#!OML:ASF I:\Actors\actors\Patient Classification 1\Patient 1\Session 1\Subject1.ASF
:FULLY-SPECIFIED
:DEGREES
1349
root 0.691107 17.5159 9.20758 12.1014 -1.74869 -8.94126
lowerback 1.64479 0.791375 6.7761
upperback -8.58603 1.70146 1.97966
thorax -9.94788 0.381946 -1.83846
lowerneck -18.9013 -4.83407 -4.36277
upperneck 24.7251 -8.09392 8.88895
head 11.8092 -2.94823 2.74713
rclavicle 9.93923e-016 1.76918e-014
rhumerus -38.647 21.0878 -88.9442
rradius 97.6507
rwrist 20.456
rhand -30.3733 -34.8396
rfingers 7.12502
rthumb -3.67796 -64.7876
lclavicle 9.93923e-016 1.76918e-014
lhumerus -47.5337 -6.73868 91.1466
lradius 96.0065
lwrist 1.35366
lhand -42.9979 -49.3967
lfingers 7.12502
lthumb -15.8563 -20.0259
rfemur -6.6796 27.6892 23.5057
rtibia 0.151128
rfoot -11.6203 -26.4804
rtoes 3.83885
lfemur 5.41286 -56.3739 -12.6841
ltibia -5.21254
lfoot -36.5854 61.5998
ltoes 20.2876
1350
root 0.698423 17.5156 9.22634 12.1827 -1.31832 -8.90102
lowerback 1.41183 0.736033 6.98021
upperback -8.69928 1.62113 1.91926
thorax -9.9401 0.321807 -2.00401
lowerneck -18.7674 -4.92173 -4.52935
upperneck 24.5763 -8.20813 9.06789
head 11.7517 -3.00062 2.82267
rclavicle -2.58172e-014 1.98785e-015
rhumerus -41.2411 19.6076 -89.2343
rradius 96.969
rwrist 20.5494
rhand -29.3619 -34.8389
rfingers 7.12502
rthumb -2.70123 -64.8016
lclavicle -2.58172e-014 1.98785e-015
lhumerus -49.4572 -5.2934 90.7453
lradius 94.8041
lwrist 1.83849
lhand -42.9326 -49.8298
lfingers 7.12502
lthumb -15.7935 -20.4541
rfemur -6.61005 27.7755 23.4722
rtibia 0.0452634
rfoot -11.8737 -26.966
rtoes 4.40079
lfemur 4.87616 -56.0607 -12.2627
ltibia -5.16568
lfoot -35.0594 61.2116
ltoes 19.4877
1351
root 0.703777 17.514 9.24593 12.2967 -0.906514 -8.81286
lowerback 1.1677 0.684983 7.11196
upperback -8.86826 1.54179 1.83901
thorax -9.98938 0.263893 -2.15076
lowerneck -18.6399 -5.03189 -4.37833
upperneck 24.6128 -8.32151 8.72662
head 11.7237 -3.08313 2.6529
rclavicle 9.93923e-017 2.3059e-014
rhumerus -43.8203 18.2944 -89.6653
rradius 95.9477
rwrist 19.7836
rhand -28.8139 -34.757
rfingers 7.12502
rthumb -2.17197 -64.7257
lclavicle 9.93923e-017 2.3059e-014
lhumerus -51.3064 -3.93025 90.194
lradius 93.3329
lwrist 1.36282
lhand -42.8164 -50.671
lfingers 7.12502
lthumb -15.6815 -21.2865
rfemur -6.57732 28.0166 23.3573
rtibia -0.0586656
rfoot -12.1536 -27.5599
rtoes 4.91528
lfemur 4.26646 -55.7468 -11.8348
ltibia -5.1076
lfoot -33.6348 60.8005
ltoes 18.7544
1352
root 0.69838 17.5156 9.26664 12.2618 -1.05992 -8.8204
lowerback 1.17024 0.801781 7.05218
upperback -9.03335 1.70122 1.78266
thorax -10.1621 0.335121 -2.19248
lowerneck -18.2814 -5.18361 -3.92527
upperneck 24.424 -8.42326 7.87975
head 11.5197 -3.20816 2.24869
rclavicle -4.12478e-015 1.66979e-014
rhumerus -46.3857 16.9629 -90.1863
rradius 94.6195
rwrist 18.5974
rhand -30.1162 -33.3863
rfingers 7.12502
rthumb -3.42964 -63.3385
lclavicle -4.12478e-015 1.66979e-014
lhumerus -53.2021 -2.87228 89.536
lradius 91.7768
lwrist 0.446702
lhand -42.9201 -51.5923
lfingers 7.12502
lthumb -15.7814 -22.2156
rfemur -6.47887 28.1568 23.4347
rtibia 0.0120789
rfoot -12.1815 -27.5279
rtoes 4.93255
lfemur 4.64149 -55.7531 -12.1358
ltibia -5.15863
lfoot -34.1465 60.8373
ltoes 19.0306
1353
root 0.693273 17.5176 9.28549 12.1658 -1.28932 -8.85225
lowerback 1.22094 0.942656 6.99159
upperback -9.16307 1.89692 1.74433
thorax -10.3214 0.426112 -2.21944
lowerneck -18.1498 -5.29089 -4.12586
upperneck 24.5437 -8.57902 8.04388
head 11.5691 -3.27761 2.32139
rclavicle -1.0312e-014 2.62396e-014
rhumerus -48.7225 15.5606 -90.6132
rradius 93.3653
rwrist 14.8848
rhand -31.659 -31.6993
rfingers 7.12502
rthumb -4.91947 -61.6222
lclavicle -1.0312e-014 2.62396e-014
lhumerus -54.8888 -2.01279 88.9479
lradius 90.1166
lwrist -0.199808
lhand -43.1568 -52.0473
lfingers 7.12502
lthumb -16.0093 -22.6888
rfemur -6.34292 28.0608 23.5685
rtibia 0.110067
rfoot -12.0912 -27.2139
rtoes 4.69754
lfemur 5.17743 -55.6765 -12.5688
ltibia -5.20902
lfoot -34.639 60.894
ltoes 19.2868
